<svg width="493.6" height="77.101" viewBox="0 0 493.6 77.101" xmlns="http://www.w3.org/2000/svg"><g id="svgGroup" stroke-linecap="round" fill-rule="evenodd" font-size="9pt" stroke="#043054" stroke-width="0.2mm" fill="#043054" style="stroke:#043054;stroke-width:0.2mm;fill:#043054"><path d="M 51.9 9.8 L 50.1 17.2 Q 47.6 16.4 44.8 15.75 A 59.648 59.648 0 0 0 41.476 15.082 A 76.009 76.009 0 0 0 38.65 14.65 Q 35.3 14.2 31.6 14.2 A 23.057 23.057 0 0 0 26.776 14.68 A 16.792 16.792 0 0 0 21.4 16.8 Q 17.2 19.4 14.55 23.45 A 28.368 28.368 0 0 0 10.856 31.879 A 32.07 32.07 0 0 0 10.7 32.5 Q 9.5 37.5 9.5 42.4 A 38.002 38.002 0 0 0 10.024 48.837 A 30.385 30.385 0 0 0 11.25 53.65 A 28.735 28.735 0 0 0 13.63 58.857 A 23.563 23.563 0 0 0 16.05 62.25 Q 19.1 65.8 23.15 67.7 Q 27.2 69.6 31.7 69.6 Q 35.9 69.6 39.4 69.15 A 119.594 119.594 0 0 0 41.885 68.805 Q 43.838 68.513 45.4 68.2 Q 48.3 67.6 50.6 66.8 L 52.3 73.9 A 49.499 49.499 0 0 1 49.073 74.849 A 63.844 63.844 0 0 1 46.3 75.5 A 69.287 69.287 0 0 1 43.678 76.006 Q 42.331 76.241 40.823 76.457 A 120.741 120.741 0 0 1 39.8 76.6 A 54.477 54.477 0 0 1 35.416 77.004 A 69.693 69.693 0 0 1 31.7 77.1 A 40.626 40.626 0 0 1 24.75 76.533 A 29.973 29.973 0 0 1 17.85 74.5 A 27.459 27.459 0 0 1 9.843 69.252 A 25.85 25.85 0 0 1 7.95 67.25 Q 4 62.6 2 56.25 A 43.184 43.184 0 0 1 0.237 47.377 A 53.192 53.192 0 0 1 0 42.3 A 53.597 53.597 0 0 1 0.528 34.594 A 39.003 39.003 0 0 1 2.4 26.95 A 35.594 35.594 0 0 1 5.458 20.491 A 28.85 28.85 0 0 1 9 15.8 Q 13.2 11.3 19 9 Q 24.8 6.7 31.7 6.7 A 69.283 69.283 0 0 1 36.736 6.876 A 56.741 56.741 0 0 1 39.55 7.15 A 73.738 73.738 0 0 1 43.467 7.735 A 57.838 57.838 0 0 1 46.25 8.3 A 87.337 87.337 0 0 1 49.8 9.19 A 70.72 70.72 0 0 1 51.9 9.8 Z M 308.8 75.8 L 308.8 35.5 A 12.017 12.017 0 0 0 308.811 35.175 Q 308.858 32.9 308.3 26.4 L 315.7 25.4 L 316.8 31.8 A 60.686 60.686 0 0 1 321.272 29.081 A 53.411 53.411 0 0 1 322.75 28.3 Q 325.7 26.8 328.8 25.65 A 18.848 18.848 0 0 1 332.225 24.72 A 15.491 15.491 0 0 1 334.8 24.5 A 29.313 29.313 0 0 1 337.686 24.634 Q 339.932 24.856 341.65 25.45 Q 344.4 26.4 346.1 28.6 A 11.265 11.265 0 0 1 347.485 30.97 Q 347.985 32.108 348.334 33.468 A 20.876 20.876 0 0 1 348.55 34.4 A 31.206 31.206 0 0 1 349.007 37.353 Q 349.181 38.94 349.252 40.774 A 68.308 68.308 0 0 1 349.3 43.4 L 349.3 75.8 L 341.3 75.8 L 341.3 44.3 Q 341.3 41.499 341.213 39.265 A 89.109 89.109 0 0 0 341.2 38.95 Q 341.1 36.6 340.35 34.95 Q 339.6 33.3 338.05 32.4 Q 336.954 31.764 335.234 31.577 A 14.271 14.271 0 0 0 333.7 31.5 A 13.31 13.31 0 0 0 330.594 31.884 A 17.685 17.685 0 0 0 328.2 32.65 Q 325.3 33.8 322.5 35.3 A 57.297 57.297 0 0 0 318.424 37.715 A 66.946 66.946 0 0 0 316.8 38.8 L 316.8 75.8 L 308.8 75.8 Z M 363.5 75.8 L 363.5 35.5 A 12.017 12.017 0 0 0 363.511 35.175 Q 363.558 32.9 363 26.4 L 370.4 25.4 L 371.5 31.8 A 60.686 60.686 0 0 1 375.972 29.081 A 53.411 53.411 0 0 1 377.45 28.3 Q 380.4 26.8 383.5 25.65 A 18.848 18.848 0 0 1 386.925 24.72 A 15.491 15.491 0 0 1 389.5 24.5 A 29.313 29.313 0 0 1 392.386 24.634 Q 394.632 24.856 396.35 25.45 Q 399.1 26.4 400.8 28.6 A 11.265 11.265 0 0 1 402.185 30.97 Q 402.685 32.108 403.034 33.468 A 20.876 20.876 0 0 1 403.25 34.4 A 31.206 31.206 0 0 1 403.707 37.353 Q 403.881 38.94 403.952 40.774 A 68.308 68.308 0 0 1 404 43.4 L 404 75.8 L 396 75.8 L 396 44.3 Q 396 41.499 395.913 39.265 A 89.109 89.109 0 0 0 395.9 38.95 Q 395.8 36.6 395.05 34.95 Q 394.3 33.3 392.75 32.4 Q 391.654 31.764 389.934 31.577 A 14.271 14.271 0 0 0 388.4 31.5 A 13.31 13.31 0 0 0 385.294 31.884 A 17.685 17.685 0 0 0 382.9 32.65 Q 380 33.8 377.2 35.3 A 57.297 57.297 0 0 0 373.124 37.715 A 66.946 66.946 0 0 0 371.5 38.8 L 371.5 75.8 L 363.5 75.8 Z M 286.8 76.6 L 286.2 70.3 L 286 70.3 Q 285.311 70.836 284.153 71.636 A 94.909 94.909 0 0 1 283.4 72.15 Q 281.7 73.3 279.5 74.4 A 28.945 28.945 0 0 1 276.282 75.764 A 34.637 34.637 0 0 1 274.65 76.3 Q 272 77.1 269.3 77.1 A 24.06 24.06 0 0 1 266.501 76.946 Q 264.554 76.718 263 76.15 A 10.118 10.118 0 0 1 262.96 76.135 A 8.808 8.808 0 0 1 258.8 73 A 11.329 11.329 0 0 1 257.535 70.719 Q 256.883 69.169 256.5 67.2 A 33.28 33.28 0 0 1 256.074 64.247 Q 255.911 62.66 255.846 60.826 A 73.181 73.181 0 0 1 255.8 58.2 L 255.8 25.5 L 263.8 25.5 L 263.8 57 A 155.009 155.009 0 0 0 263.824 59.765 Q 263.849 61.162 263.9 62.4 A 18.338 18.338 0 0 0 264.064 64.234 Q 264.244 65.491 264.6 66.5 A 5.732 5.732 0 0 0 265.45 68.095 A 5.02 5.02 0 0 0 266.55 69.15 A 4.576 4.576 0 0 0 267.837 69.765 Q 268.444 69.953 269.179 70.036 A 10.981 10.981 0 0 0 270.4 70.1 A 13.652 13.652 0 0 0 273.878 69.632 A 17.256 17.256 0 0 0 275.8 69 A 34.853 34.853 0 0 0 279.337 67.386 A 29.55 29.55 0 0 0 280.9 66.5 Q 283.6 64.9 286.2 62.9 L 286.2 25.5 L 294.2 25.5 L 294.2 69.3 Q 294.3 72.9 294.7 75.8 L 286.8 76.6 Z M 150.2 76.6 L 149.4 71.8 A 37.589 37.589 0 0 1 146.86 73.426 A 29.646 29.646 0 0 1 144.95 74.45 A 31.962 31.962 0 0 1 141.805 75.776 A 37.792 37.792 0 0 1 140.25 76.3 A 17.479 17.479 0 0 1 136.987 77.003 A 14.959 14.959 0 0 1 135.3 77.1 A 21.309 21.309 0 0 1 128.697 76.125 A 17.019 17.019 0 0 1 120.55 70.45 A 21.514 21.514 0 0 1 116.941 63.6 Q 115.934 60.536 115.51 56.803 A 51.446 51.446 0 0 1 115.2 51 Q 115.2 43.4 117.65 38.3 A 27.027 27.027 0 0 1 120.389 33.744 A 20.931 20.931 0 0 1 123.8 30.15 A 23.756 23.756 0 0 1 129.531 26.614 A 21.622 21.622 0 0 1 131.75 25.8 A 32.052 32.052 0 0 1 135.592 24.867 Q 137.655 24.506 139.541 24.5 A 19.978 19.978 0 0 1 139.6 24.5 A 29.1 29.1 0 0 1 142.17 24.618 A 34.501 34.501 0 0 1 143.4 24.75 Q 145.4 25 149.3 26 L 149.3 0.9 L 157.3 0 L 157.3 66.7 Q 157.3 68.1 157.35 69.65 Q 157.4 71.2 157.55 72.7 A 124.898 124.898 0 0 0 157.851 75.402 A 138.048 138.048 0 0 0 157.9 75.8 L 150.2 76.6 Z M 207.5 67.9 L 209 74.6 Q 206.7 75.3 204.25 75.8 Q 201.8 76.3 198.85 76.7 A 45.058 45.058 0 0 1 193.595 77.092 A 50.368 50.368 0 0 1 192.7 77.1 A 31.515 31.515 0 0 1 186.439 76.497 A 27.288 27.288 0 0 1 183.4 75.7 Q 179.1 74.3 175.9 71.2 A 19.463 19.463 0 0 1 172.446 66.636 A 25.645 25.645 0 0 1 170.85 63.15 Q 169 58.2 169 51 A 39.835 39.835 0 0 1 169.393 45.269 A 28.859 28.859 0 0 1 170.8 39.55 A 26.307 26.307 0 0 1 173.173 34.614 A 21.444 21.444 0 0 1 175.75 31.25 Q 178.9 27.9 183.15 26.2 A 24.035 24.035 0 0 1 190.552 24.56 A 28.239 28.239 0 0 1 192.4 24.5 A 21.296 21.296 0 0 1 196.574 24.89 A 15.873 15.873 0 0 1 200.9 26.4 Q 204.5 28.3 206.85 31.55 A 21.654 21.654 0 0 1 209.609 36.79 A 26.241 26.241 0 0 1 210.35 39.15 A 35.317 35.317 0 0 1 211.49 47.404 A 39.552 39.552 0 0 1 211.5 48.3 L 210 52.7 L 177.7 52.7 Q 177.7 55.8 178.5 58.9 Q 179.3 62 181.25 64.5 A 13.9 13.9 0 0 0 185.03 67.826 A 16.816 16.816 0 0 0 186.35 68.55 Q 189.082 69.894 192.979 70.073 A 26.692 26.692 0 0 0 194.2 70.1 Q 197.2 70.1 199.7 69.75 A 58.345 58.345 0 0 0 201.484 69.473 Q 202.894 69.231 204.05 68.95 A 31.635 31.635 0 0 0 206.476 68.26 A 26.901 26.901 0 0 0 207.5 67.9 Z M 453.8 67.9 L 455.3 74.6 Q 453 75.3 450.55 75.8 Q 448.1 76.3 445.15 76.7 A 45.058 45.058 0 0 1 439.895 77.092 A 50.368 50.368 0 0 1 439 77.1 A 31.515 31.515 0 0 1 432.739 76.497 A 27.288 27.288 0 0 1 429.7 75.7 Q 425.4 74.3 422.2 71.2 A 19.463 19.463 0 0 1 418.746 66.636 A 25.645 25.645 0 0 1 417.15 63.15 Q 415.3 58.2 415.3 51 A 39.835 39.835 0 0 1 415.693 45.269 A 28.859 28.859 0 0 1 417.1 39.55 A 26.307 26.307 0 0 1 419.473 34.614 A 21.444 21.444 0 0 1 422.05 31.25 Q 425.2 27.9 429.45 26.2 A 24.035 24.035 0 0 1 436.852 24.56 A 28.239 28.239 0 0 1 438.7 24.5 A 21.296 21.296 0 0 1 442.874 24.89 A 15.873 15.873 0 0 1 447.2 26.4 Q 450.8 28.3 453.15 31.55 A 21.654 21.654 0 0 1 455.909 36.79 A 26.241 26.241 0 0 1 456.65 39.15 A 35.317 35.317 0 0 1 457.79 47.404 A 39.552 39.552 0 0 1 457.8 48.3 L 456.3 52.7 L 424 52.7 Q 424 55.8 424.8 58.9 Q 425.6 62 427.55 64.5 A 13.9 13.9 0 0 0 431.33 67.826 A 16.816 16.816 0 0 0 432.65 68.55 Q 435.382 69.894 439.279 70.073 A 26.692 26.692 0 0 0 440.5 70.1 Q 443.5 70.1 446 69.75 A 58.345 58.345 0 0 0 447.784 69.473 Q 449.194 69.231 450.35 68.95 A 31.635 31.635 0 0 0 452.776 68.26 A 26.901 26.901 0 0 0 453.8 67.9 Z M 60.1 38.15 A 20.659 20.659 0 0 0 59.217 40.329 Q 57.7 44.759 57.7 50.8 A 47.13 47.13 0 0 0 57.777 53.528 Q 57.939 56.328 58.447 58.733 A 23.363 23.363 0 0 0 60.05 63.7 A 27.074 27.074 0 0 0 62.247 67.62 A 19.852 19.852 0 0 0 65.95 71.75 A 24.043 24.043 0 0 0 66.173 71.933 A 21.051 21.051 0 0 0 73.7 75.9 A 33.412 33.412 0 0 0 76.794 76.631 A 26.93 26.93 0 0 0 81.7 77.1 Q 85.4 77.1 89.7 75.85 A 21.122 21.122 0 0 0 91.683 75.165 A 22.826 22.826 0 0 0 97.7 71.55 A 20.631 20.631 0 0 0 101.279 67.703 A 27.379 27.379 0 0 0 103.85 63.3 A 21.34 21.34 0 0 0 104.79 60.941 Q 106.3 56.403 106.3 50.2 A 43.87 43.87 0 0 0 106.225 47.594 Q 105.876 41.724 103.9 37.65 A 27.352 27.352 0 0 0 101.932 34.219 A 20.883 20.883 0 0 0 97.9 29.75 A 23.862 23.862 0 0 0 97.675 29.567 A 20.843 20.843 0 0 0 90.05 25.65 A 35.572 35.572 0 0 0 86.209 24.825 A 26.217 26.217 0 0 0 82.2 24.5 A 25.195 25.195 0 0 0 78.727 24.748 A 31.735 31.735 0 0 0 74.15 25.75 A 20.952 20.952 0 0 0 71.739 26.623 A 23.165 23.165 0 0 0 66.2 30.05 Q 62.5 33.1 60.1 38.15 Z M 222.5 75.8 L 222.5 33.6 Q 222.5 31.386 222.037 26.762 A 201.652 201.652 0 0 0 222 26.4 L 229.4 25.4 L 230.2 32.7 L 230.3 32.7 Q 232.1 30.4 233.8 28.7 A 24.654 24.654 0 0 1 236.662 26.235 A 22.19 22.19 0 0 1 237.35 25.75 Q 238.871 24.722 240.291 24.54 A 4.768 4.768 0 0 1 240.9 24.5 A 15.388 15.388 0 0 1 241.414 24.487 Q 243.64 24.464 247.3 25 L 245.5 32.7 Q 242.377 32.132 241.045 32.191 A 4.491 4.491 0 0 0 240.9 32.2 A 4.199 4.199 0 0 0 239.319 32.529 Q 238.722 32.77 238.103 33.189 A 9.67 9.67 0 0 0 237.3 33.8 A 23.326 23.326 0 0 0 234.732 36.313 A 20.623 20.623 0 0 0 234 37.2 A 40.292 40.292 0 0 0 231.817 40.144 A 49.861 49.861 0 0 0 230.5 42.2 L 230.5 75.8 L 222.5 75.8 Z M 468.8 75.8 L 468.8 33.6 Q 468.8 31.386 468.337 26.762 A 201.652 201.652 0 0 0 468.3 26.4 L 475.7 25.4 L 476.5 32.7 L 476.6 32.7 Q 478.4 30.4 480.1 28.7 A 24.654 24.654 0 0 1 482.962 26.235 A 22.19 22.19 0 0 1 483.65 25.75 Q 485.171 24.722 486.591 24.54 A 4.768 4.768 0 0 1 487.2 24.5 A 15.388 15.388 0 0 1 487.714 24.487 Q 489.94 24.464 493.6 25 L 491.8 32.7 Q 488.677 32.132 487.345 32.191 A 4.491 4.491 0 0 0 487.2 32.2 A 4.199 4.199 0 0 0 485.619 32.529 Q 485.022 32.77 484.403 33.189 A 9.67 9.67 0 0 0 483.6 33.8 A 23.326 23.326 0 0 0 481.032 36.313 A 20.623 20.623 0 0 0 480.3 37.2 A 40.292 40.292 0 0 0 478.117 40.144 A 49.861 49.861 0 0 0 476.8 42.2 L 476.8 75.8 L 468.8 75.8 Z M 66.2 50.9 A 34.423 34.423 0 0 0 66.584 56.223 Q 67.492 62.01 70.55 65.35 A 14.373 14.373 0 0 0 79.42 69.904 A 20.44 20.44 0 0 0 82.3 70.1 A 18.211 18.211 0 0 0 87.134 69.493 A 13.13 13.13 0 0 0 93.7 65.4 A 14.785 14.785 0 0 0 96.499 60.401 Q 97.8 56.597 97.8 51.3 A 36.57 36.57 0 0 0 97.417 45.812 Q 96.991 43.015 96.093 40.772 A 14.803 14.803 0 0 0 93.45 36.4 A 14.313 14.313 0 0 0 84.356 31.68 A 20.446 20.446 0 0 0 81.6 31.5 A 18.477 18.477 0 0 0 76.913 32.06 A 12.594 12.594 0 0 0 70.15 36.35 A 15.312 15.312 0 0 0 67.593 41.091 Q 66.831 43.306 66.486 46.032 A 38.853 38.853 0 0 0 66.2 50.9 Z M 149.3 64.8 L 149.3 33 Q 146.333 32.176 144.453 31.861 A 18.4 18.4 0 0 0 143.7 31.75 Q 141.7 31.5 139.6 31.5 Q 135.628 31.5 132.729 32.842 A 12.101 12.101 0 0 0 132.4 33 Q 129.4 34.5 127.45 37.15 A 17.366 17.366 0 0 0 124.907 42.191 A 20.21 20.21 0 0 0 124.6 43.25 A 28.163 28.163 0 0 0 123.743 48.915 A 32.573 32.573 0 0 0 123.7 50.6 Q 123.7 54.1 124.45 57.6 A 23.072 23.072 0 0 0 125.801 61.892 A 19.853 19.853 0 0 0 126.8 63.9 A 15.614 15.614 0 0 0 128.822 66.702 A 13.061 13.061 0 0 0 130.7 68.4 Q 133 70.1 136.2 70.1 A 13.339 13.339 0 0 0 139.368 69.704 A 16.219 16.219 0 0 0 140.75 69.3 A 31.639 31.639 0 0 0 144.013 67.99 A 27.514 27.514 0 0 0 145.1 67.45 A 30.141 30.141 0 0 0 147.282 66.179 A 39.839 39.839 0 0 0 149.3 64.8 Z M 178 46.3 L 203.2 46.3 A 6.564 6.564 0 0 0 203.186 45.912 Q 203.135 45.075 202.9 43.2 A 17.239 17.239 0 0 0 202.238 40.201 A 21.868 21.868 0 0 0 201.5 38.2 Q 200.4 35.6 198.1 33.55 A 7.848 7.848 0 0 0 194.538 31.765 A 11.506 11.506 0 0 0 192 31.5 A 16.563 16.563 0 0 0 189.061 31.746 Q 187.374 32.051 186.009 32.731 A 9.326 9.326 0 0 0 185.1 33.25 A 15.73 15.73 0 0 0 182.282 35.557 A 13.419 13.419 0 0 0 180.8 37.4 A 16.356 16.356 0 0 0 179.222 40.362 A 13.826 13.826 0 0 0 178.6 42.3 A 30.6 30.6 0 0 0 178.284 43.765 Q 178 45.269 178 46.3 Z M 424.3 46.3 L 449.5 46.3 A 6.564 6.564 0 0 0 449.486 45.912 Q 449.435 45.075 449.2 43.2 A 17.239 17.239 0 0 0 448.538 40.201 A 21.868 21.868 0 0 0 447.8 38.2 Q 446.7 35.6 444.4 33.55 A 7.848 7.848 0 0 0 440.838 31.765 A 11.506 11.506 0 0 0 438.3 31.5 A 16.563 16.563 0 0 0 435.361 31.746 Q 433.674 32.051 432.309 32.731 A 9.326 9.326 0 0 0 431.4 33.25 A 15.73 15.73 0 0 0 428.582 35.557 A 13.419 13.419 0 0 0 427.1 37.4 A 16.356 16.356 0 0 0 425.522 40.362 A 13.826 13.826 0 0 0 424.9 42.3 A 30.6 30.6 0 0 0 424.584 43.765 Q 424.3 45.269 424.3 46.3 Z" vector-effect="non-scaling-stroke"/></g></svg>